<svg width="52" height="52" viewBox="0 0 52 52" fill="none" xmlns="http://www.w3.org/2000/svg">
<g clip-path="url(#clip0_1411_22017)">
<path d="M24.0392 1.83516V6.83516C24.0392 7.70879 23.4231 8.46154 22.565 8.63187C20.3646 9.06593 18.2633 9.91758 16.3819 11.1374C15.6558 11.6099 14.7042 11.5055 14.0936 10.8901L10.5455 7.34615C10.1659 6.96703 9.9679 6.43406 10.0119 5.9011C10.0559 5.36264 10.3365 4.87362 10.771 4.56044C14.0881 2.1978 17.9112 0.642855 21.9379 0.0219761C22.4659 -0.054947 22.9995 0.0988992 23.4066 0.445053C23.8082 0.796701 24.0447 1.3022 24.0392 1.83516Z" fill="white"/>
<path opacity="0.8" d="M11.2496 16.1923C9.98987 18.0769 9.10423 20.1868 8.64215 22.4066C8.46612 23.2527 7.7125 23.8571 6.84886 23.8516H1.83754C1.29845 23.8516 0.781369 23.6099 0.434812 23.1978C0.0882555 22.7857 -0.0602688 22.2363 0.0277456 21.7088C0.687854 17.6758 2.28861 13.8516 4.69251 10.5494C5.01156 10.1154 5.49564 9.84615 6.03473 9.8022C6.56831 9.76374 7.0964 9.95604 7.47596 10.3352L11.024 13.8791C11.6456 14.4945 11.7447 15.4725 11.2496 16.1978V16.1923Z" fill="white"/>
<path opacity="0.6" d="M11.013 38.1154L7.46496 41.6593C7.0854 42.0385 6.56281 42.2308 6.02923 42.1923C5.49564 42.1483 5.00606 41.8791 4.69251 41.445C2.28862 38.1429 0.687854 34.3242 0.0277456 30.2912C-0.0602688 29.7582 0.0882555 29.2143 0.434812 28.8022C0.781369 28.3901 1.29845 28.1483 1.83754 28.1483H6.84886C7.7125 28.1483 8.46613 28.7472 8.64215 29.5934C9.10423 31.8132 9.98988 33.9231 11.2496 35.8077C11.7337 36.533 11.6401 37.5 11.0185 38.1154H11.013Z" fill="white"/>
<path opacity="0.5" d="M24.0392 45.1703V50.1703C24.0392 50.7033 23.8082 51.2088 23.4066 51.5604C23.005 51.9066 22.4659 52.0604 21.9379 51.9835C17.9112 51.3571 14.0881 49.8077 10.771 47.4451C10.3365 47.1319 10.0559 46.6429 10.0119 46.1044C9.9679 45.5659 10.1659 45.0385 10.5455 44.6593L14.0936 41.1154C14.7042 40.5055 15.6558 40.4011 16.3819 40.8681C18.2633 42.0879 20.3591 42.9396 22.5595 43.3736C23.4176 43.544 24.0337 44.2967 24.0337 45.1703H24.0392Z" fill="white"/>
<path opacity="0.4" d="M41.4607 47.2802C38.2097 49.6428 34.4526 51.2308 30.4864 51.9121C29.9528 52.0055 29.4028 51.8626 28.9902 51.511C28.5721 51.1593 28.3301 50.6483 28.3301 50.1099V45.0989C28.3301 44.2417 28.9242 43.4945 29.7658 43.3132C31.9277 42.8406 33.9795 41.9725 35.8168 40.7472C36.5429 40.2637 37.5111 40.3571 38.1327 40.978L41.6808 44.522C42.0603 44.9011 42.2529 45.4231 42.2143 45.956C42.1703 46.489 41.9008 46.978 41.4662 47.2912L41.4607 47.2802Z" fill="white"/>
<path opacity="0.3" d="M51.9728 30.2857C51.3237 34.2253 49.7834 37.967 47.4621 41.2198C47.1485 41.6593 46.6589 41.9341 46.1198 41.978C45.5808 42.022 45.0527 41.8242 44.6786 41.4396L41.1305 37.8956C40.5199 37.2857 40.4154 36.3297 40.8885 35.6099C42.0767 33.7747 42.9183 31.7363 43.3584 29.5989C43.5344 28.7527 44.288 28.1429 45.1572 28.1484H50.1685C50.7076 28.1484 51.2192 28.3846 51.5657 28.7967C51.9178 29.2088 52.0663 29.7527 51.9783 30.2857H51.9728Z" fill="white"/>
<path opacity="0.2" d="M50.1681 23.8571H45.1568C44.2876 23.8571 43.5395 23.2527 43.358 22.4066C42.9179 20.2692 42.0763 18.2308 40.8881 16.3956C40.415 15.6703 40.5195 14.7143 41.1356 14.1044L44.6837 10.5604C45.0633 10.1758 45.5913 9.98351 46.1304 10.0275C46.6695 10.0714 47.1591 10.3516 47.4727 10.7857C49.7885 14.0385 51.3343 17.7802 51.9779 21.7198C52.0659 22.2527 51.9174 22.7967 51.5653 23.2033C51.2188 23.6154 50.7072 23.8516 50.1681 23.8516V23.8571Z" fill="white"/>
<path opacity="0.1" d="M41.6753 7.4945L38.1272 11.0385C37.5111 11.6538 36.5375 11.7527 35.8113 11.2637C33.974 10.0385 31.9222 9.16483 29.7603 8.6978C28.9242 8.51098 28.3246 7.76373 28.3301 6.90659V1.8956C28.3301 1.35714 28.5722 0.840654 28.9902 0.494501C29.4028 0.148347 29.9529 -4.84288e-06 30.4865 0.0934018C34.4526 0.769226 38.2097 2.35714 41.4608 4.72527C41.8953 5.03846 42.1649 5.52747 42.2089 6.06593C42.2474 6.5989 42.0549 7.12637 41.6753 7.5V7.4945Z" fill="white"/>
</g>
<defs>
<clipPath id="clip0_1411_22017">
<rect width="52" height="52" fill="white"/>
</clipPath>
</defs>
</svg>
