<svg width="297" height="97" viewBox="0 0 297 97" fill="none" xmlns="http://www.w3.org/2000/svg">
<path d="M256.088 63.208C256.088 79.208 261.592 89.192 269.272 89.192C271.832 89.192 272.984 88.168 277.208 83.432L277.08 52.2C277.08 44.008 273.24 38.376 267.864 38.376C260.696 38.376 256.088 48.488 256.088 63.208ZM285.528 94.952C280.408 94.952 277.848 91.24 277.336 85.48C272.728 90.728 269.912 94.696 264.28 94.696C255.32 94.696 248.536 83.944 248.536 67.176C248.536 49 256.472 36.584 268.632 36.584C278.36 36.584 285.016 44.392 285.016 56.04V81.128C285.016 85.864 286.552 89.064 290.52 89.064C292.44 89.064 293.976 88.168 296.664 83.944C294.104 90.6 290.904 94.952 285.528 94.952Z" fill="white"/>
<path d="M194.197 93.8L194.069 44.392L202.005 37.608L202.133 91.112C210.197 86.376 215.573 78.056 215.573 69.096V44.392L223.381 37.608V37.736L223.509 37.608L223.637 91.112C231.701 86.376 237.077 78.056 237.077 69.096V44.52L244.885 37.608V69.224C244.885 78.312 236.437 88.168 223.637 93.8H215.701V84.84C212.117 88.296 207.509 91.496 202.133 93.8H194.197Z" fill="white"/>
<path d="M156.569 44.52L164.377 37.736V49.768C168.473 41.064 174.105 36.2 180.889 36.2C187.161 36.2 191.769 40.296 191.769 46.312C191.769 52.712 186.521 57.704 178.457 58.6C181.913 55.912 184.089 51.304 184.089 47.208C184.089 42.6 181.273 39.4 177.561 39.4C172.569 39.4 167.577 45.16 164.377 53.992V93.8H156.569V44.52Z" fill="white"/>
<path d="M118.588 63.208C118.588 79.208 124.092 89.192 131.772 89.192C134.332 89.192 135.484 88.168 139.708 83.432L139.58 52.2C139.58 44.008 135.74 38.376 130.364 38.376C123.196 38.376 118.588 48.488 118.588 63.208ZM148.028 94.952C142.908 94.952 140.348 91.24 139.836 85.48C135.228 90.728 132.412 94.696 126.78 94.696C117.82 94.696 111.036 83.944 111.036 67.176C111.036 49 118.972 36.584 131.132 36.584C140.86 36.584 147.516 44.392 147.516 56.04V81.128C147.516 85.864 149.052 89.064 153.02 89.064C154.94 89.064 156.476 88.168 159.164 83.944C156.604 90.6 153.404 94.952 148.028 94.952Z" fill="white"/>
<path d="M79.261 93.8H71.453V16.488C71.453 10.984 75.549 4.45599 81.693 0.103996C80.285 2.536 79.261 5.992 79.261 8.808V48.872C84.893 42.856 91.421 36.328 96.797 36.328C100.637 36.328 104.093 39.528 104.093 47.976V81.128C104.093 85.864 105.501 89.064 109.469 89.064C111.389 89.064 112.925 88.168 115.613 83.944C113.053 90.6 109.853 94.952 104.477 94.952C98.717 94.952 96.157 90.088 96.157 82.664V50.28C96.157 45.672 94.237 42.6 90.781 42.6C87.453 42.6 84.381 45.544 79.261 51.048V93.8Z" fill="white"/>
<path d="M12.776 3.30399C14.312 8.55199 19.944 12.008 26.6 12.008C38.76 12.008 53.992 0.231995 68.968 0.231995C82.792 0.231995 97.768 10.472 97.768 21.992L89.704 14.312C89.704 7.144 85.48 5.992 79.72 5.992C69.992 5.992 61.032 9.31999 52.84 12.648L60.776 20.456L60.648 75.24C60.648 87.272 45.416 97 26.344 97C3.176 97 -6.04 82.664 4.712 61.16C-0.664 79.08 12.392 91.112 36.328 91.112C47.976 91.112 52.712 88.296 52.712 82.792V12.776C44.008 16.488 36.072 20.328 28.904 20.328C19.432 20.328 12.776 13.544 12.776 3.30399Z" fill="white"/>
</svg>
